<svg xmlns="http://www.w3.org/2000/svg" width="30.426" height="30.426" viewBox="0 0 30.426 30.426">
    <g>
        <path fill="none" d="M0 0H30.426V30.426H0z" transform="rotate(-90 15.213 15.213)"/>
        <path fill="#fff" d="M12.677 2.535A10.142 10.142 0 1 1 2.535 12.677 10.155 10.155 0 0 1 12.677 2.535m0-2.535a12.677 12.677 0 1 0 12.678 12.677A12.682 12.682 0 0 0 12.677 0zm1.268 12.677v-3.8a1.271 1.271 0 0 0-1.268-1.268 1.271 1.271 0 0 0-1.267 1.265v3.8H9.14a.627.627 0 0 0-.44 1.081l3.537 3.537a.628.628 0 0 0 .9 0l3.537-3.537a.633.633 0 0 0-.444-1.078z" transform="rotate(-90 15.213 15.213) translate(2.535 2.535)"/>
    </g>
</svg>
