<svg xmlns="http://www.w3.org/2000/svg" width="57.576" height="57.576" viewBox="0 0 57.576 57.576">
    <path fill="none" d="M0 0h57.576v57.576H0z"/>
    <path fill="#b941ff" d="M19.793 5.8H7.8A4.812 4.812 0 0 0 3 10.6v33.582a4.812 4.812 0 0 0 4.8 4.8h11.993v2.4a2.4 2.4 0 0 0 4.8 0V3.4a2.4 2.4 0 1 0-4.8 0zm0 35.985H7.8l11.993-14.396zM41.384 5.8H29.389v4.8h9.6a2.406 2.406 0 0 1 2.4 2.4v28.783l-12-14.394V48.98h11.995a4.812 4.812 0 0 0 4.8-4.8V10.6a4.812 4.812 0 0 0-4.8-4.8z" transform="translate(4.197 1.399)"/>
</svg>
